<svg xmlns="http://www.w3.org/2000/svg" viewBox="0 0 512 512" width="512" height="512" role="img" aria-labelledby="title desc">
    <title id="title">Work</title>
    <desc id="desc">Perfect category pictogram: work</desc>
    <g transform="translate(56 56) scale(16.6666667)" fill="none" stroke="#CDEED8" stroke-width="3.4" stroke-linecap="round" stroke-linejoin="round" opacity=".96"><path d="M12 12h.01"></path><path d="M16 6V4a2 2 0 0 0-2-2h-4a2 2 0 0 0-2 2v2"></path><path d="M22 13a18.15 18.15 0 0 1-20 0"></path><rect width="20" height="14" x="2" y="6" rx="2"></rect></g>
    <g transform="translate(56 56) scale(16.6666667)" fill="none" stroke="#347B54" stroke-width="1.72" stroke-linecap="round" stroke-linejoin="round"><path d="M12 12h.01"></path><path d="M16 6V4a2 2 0 0 0-2-2h-4a2 2 0 0 0-2 2v2"></path><path d="M22 13a18.15 18.15 0 0 1-20 0"></path><rect width="20" height="14" x="2" y="6" rx="2"></rect></g>
    <circle cx="432" cy="92" r="17" fill="#CDEED8"/><circle cx="432" cy="92" r="7" fill="#347B54"/>
  </svg>
